<svg xmlns="http://www.w3.org/2000/svg" xmlns:xlink="http://www.w3.org/1999/xlink" viewBox="0 0 181.64 47.88"><defs><style>.cls-1,.cls-14{fill:none;}.cls-2,.cls-7,.cls-8,.cls-9{stroke:#fcd109;}.cls-10,.cls-11,.cls-12,.cls-2,.cls-3,.cls-4,.cls-5,.cls-6,.cls-7,.cls-8,.cls-9{stroke-width:0.01px;}.cls-2{fill:url(#linear-gradient);}.cls-3{fill:#f8f3b5;stroke:#f8f3b5;}.cls-4{fill:#f7b402;stroke:#f7b402;}.cls-5{fill:#bda727;stroke:#bda727;}.cls-6{fill:#f7e62d;stroke:#f7e62d;}.cls-7{fill:url(#radial-gradient);}.cls-8{fill:url(#linear-gradient-2);}.cls-9{fill:url(#linear-gradient-3);}.cls-10{fill:#0d69b3;stroke:#0d69b3;}.cls-11,.cls-15{fill:#107bd4;stroke:#107bd4;}.cls-12{fill:#fff;stroke:#fff;}.cls-13{clip-path:url(#clip-path);}.cls-14{stroke:#d1d1d1;stroke-width:0.14px;}.cls-15{stroke-width:0.01px;}</style><linearGradient id="linear-gradient" x1="2.35" y1="-76.86" x2="2.35" y2="-37.07" gradientTransform="translate(155.14 84.95)" gradientUnits="userSpaceOnUse"><stop offset="0" stop-color="#f7e830"/><stop offset="1" stop-color="#fdcb06"/></linearGradient><radialGradient id="radial-gradient" cx="2.14" cy="-58.71" r="32.36" gradientTransform="translate(155.14 84.95)" gradientUnits="userSpaceOnUse"><stop offset="0.6" stop-color="#f29405"/><stop offset="0.74" stop-color="#f7d01e"/><stop offset="1" stop-color="#fdcb06"/></radialGradient><linearGradient id="linear-gradient-2" x1="13.42" y1="-75.42" x2="13.43" y2="-73.54" gradientTransform="translate(155.14 84.95)" gradientUnits="userSpaceOnUse"><stop offset="0" stop-color="#fada1c"/><stop offset="1" stop-color="#fdcb06"/></linearGradient><linearGradient id="linear-gradient-3" x1="-7488.95" y1="-75.51" x2="-7488.94" y2="-73.63" gradientTransform="matrix(-1, 0, 0, 1, -7342.55, 84.95)" xlink:href="#linear-gradient-2"/><clipPath id="clip-path"><path class="cls-1" d="M168.56,10.46a.65.65,0,0,1-.06-.34h-.06a.78.78,0,0,0-.65-.6.69.69,0,0,0-.69.22c-.27.37-.15.83-.16,1.25,0,0,0,.07,0,.1a5.69,5.69,0,0,1-.08.82.58.58,0,0,0-.06.26,6.33,6.33,0,0,1-.66,1.84.68.68,0,0,0-.13.27,9.48,9.48,0,0,1-.7,1,.52.52,0,0,0-.1.11,6.37,6.37,0,0,1-.57.59l-.12.09a4.89,4.89,0,0,1-.76.6l-.11.08a10.91,10.91,0,0,1-5.89,1.63,10.8,10.8,0,0,1-5.06-1.07l-.13-.05a5.88,5.88,0,0,1-.77-.44l-.17-.09a5,5,0,0,1-.71-.5l-.24-.18a6.22,6.22,0,0,1-.71-.64.87.87,0,0,0-.16-.17,6.81,6.81,0,0,1-1.62-2.72,8.23,8.23,0,0,1-.28-2.53.9.9,0,0,0-1.16-.35c-.17.12-.19.34-.32.5a7.93,7.93,0,0,0,2.27,6.07.1.1,0,0,0,.07.11c.27.25.53.51.81.75a.73.73,0,0,0,.16.14c.27.22.56.42.84.63l.17.11a7.81,7.81,0,0,0,1.13.62.36.36,0,0,0,.1.07,11.93,11.93,0,0,0,4.09,1.17,2.42,2.42,0,0,1,.47.05c.68,0,1.35,0,2,0a12.2,12.2,0,0,0,6-1.93l0,0,.16-.13c.27-.2.54-.42.81-.64l.19-.16a9.45,9.45,0,0,0,.9-1l0,0,.07-.13c.23-.31.44-.64.65-1l.06-.08,0,0,.09-.1a8.16,8.16,0,0,0,.82-2.39.12.12,0,0,0,.07-.11,7.22,7.22,0,0,0,.08-.8,4.85,4.85,0,0,0,.05-1Z"/></clipPath></defs><g id="Layer_2" data-name="Layer 2"><g id="Layer_5" data-name="Layer 5"><path class="cls-2" d="M181.6,8.3a1.18,1.18,0,0,0-.07-.2H133.44a.35.35,0,0,0-.08.16v37.3a3,3,0,0,0,.95,1.71l.09,0a2.37,2.37,0,0,0,.95.51c.25,0,.49.09.74.07H156a1.81,1.81,0,0,0,.57-.05s0-.07,0-.1,0-.11,0-.15c.43-2.38.84-4.77,1.29-7.16l.05-.3H152.4c-.44,0-.9,0-1.35,0-.76,0-1.54,0-2.3-.08-.95,0-1.89-.09-2.84-.09-.74-.07-1.49,0-2.24-.08-.49-.06-1,0-1.49-.06-.8-.08-1.62,0-2.43-.11s-1.7-.07-2.56-.09a.08.08,0,0,0,0,0c.28,0,.56,0,.84,0,.63-.08,1.27,0,1.9-.11s1.31-.09,2-.09,1.17,0,1.76-.12,1.35-.09,2-.09,1.13,0,1.7-.11,1.3-.1,2-.09,1.3-.05,1.94-.12c-.06-.25-.11-.5-.16-.75s-.24-.12-.36-.14l-4.39-.63c.09-.07.22,0,.33-.05l3.4-.27c.26,0,.51-.06.77-.07a8.75,8.75,0,0,0-.34-1.06c-2.43-.37-4.86-.71-7.28-1.11.63-.1,1.26-.14,1.89-.21l.06,0c2-.21,4-.45,6-.65h7.65c.08,0,.23,0,.24-.08.21-1.1.41-2.2.62-3.29A16.08,16.08,0,0,1,161.23,26a13,13,0,0,1,5-5.39,14.63,14.63,0,0,1,6.66-1.85,10,10,0,0,1,2.25.05,3.05,3.05,0,0,1,1.37.58,2.32,2.32,0,0,1,.65,1,15.77,15.77,0,0,1,.64,2.78,2.13,2.13,0,0,1-.13,1.15,1.44,1.44,0,0,1-.93.6c-1.3.34-2.67,0-4,.34A4.88,4.88,0,0,0,170,27a7.91,7.91,0,0,0-1.47,3.49c-.18,1.11-.41,2.22-.59,3.34h3.87a1.37,1.37,0,0,1,1.25.78,3.69,3.69,0,0,1,.12,2,6.91,6.91,0,0,1-.61,2.14A2.42,2.42,0,0,1,171.23,40a2.69,2.69,0,0,1-1,.1c-1.14,0-2.28,0-3.41,0-.19.84-.31,1.69-.47,2.53-.3,1.65-.59,3.3-.89,5,0,.06,0,.17,0,.23.53,0,1.07,0,1.6,0,4,0,7.94,0,11.92,0a2.41,2.41,0,0,0,1.23-.3c.22-.08.36-.28.55-.39s.25-.33.41-.47a2.18,2.18,0,0,0,.37-1l.1,0C181.59,33.21,181.61,20.75,181.6,8.3Z"/><path class="cls-3" d="M139.67.11a7,7,0,0,1,1.77-.1H174.6a5.47,5.47,0,0,1,1.84.53c.49.2,1,.35,1.48.56a.64.64,0,0,1,.25.21V4a2.41,2.41,0,0,0,.05.71c.14,0,.22.13.31.22a9,9,0,0,1,1.24.8c.6.44,1.25.81,1.85,1.26a1,1,0,0,1-.05.52,2.93,2.93,0,0,0,0,.59H133.44a2.81,2.81,0,0,0-.07-.65c0-.18-.07-.41.09-.53.68-.48,1.4-.9,2.06-1.4.42-.27.81-.54,1.21-.81a.77.77,0,0,0,.06-.45V1.31c.24-.3.63-.33,1-.48l1.93-.72m0,.11-2.6,1c-.12,0-.18.13-.24.21a1.48,1.48,0,0,1,0,.21V4.05a1.63,1.63,0,0,0,.05.59,1.74,1.74,0,0,1-.29.25c-1,.63-1.93,1.32-2.91,2-.17.1-.36.24-.31.46s0,.23.16.19c2.13,0,4.24,0,6.37,0,3.16,0,6.32,0,9.48,0l0,0a1.63,1.63,0,0,0,.44,0c5.72,0,11.45,0,17.18,0,1.8,0,3.61,0,5.42,0,3,0,6,0,8.94,0,.09,0,.12-.09.08-.19s0-.26-.08-.33a15.59,15.59,0,0,1-1.33-.84,2.33,2.33,0,0,1-.5-.39c-.46-.26-.9-.59-1.36-.88a1.19,1.19,0,0,1-.23-.22,1.67,1.67,0,0,0,.06-.44c0-.86,0-1.72,0-2.58a.38.38,0,0,0-.11-.38c-.81-.29-1.62-.6-2.42-.9a2.82,2.82,0,0,0-.8-.23h-34.6a2.36,2.36,0,0,0-.44.11Z"/><path class="cls-4" d="M136.88,1.62c.6.25,1.24.39,1.84.63.32.13.42.48.57.77a3.16,3.16,0,0,1-.48.36c-.63.42-1.26.83-1.88,1.26a1.63,1.63,0,0,1-.05-.59Zm39.37.63c.6-.23,1.23-.4,1.83-.63,0,.86,0,1.72,0,2.58a1.67,1.67,0,0,1-.06.44l-1.59-1.07a6.05,6.05,0,0,1-.77-.56c.14-.28.25-.63.58-.76Z"/><path class="cls-5" d="M147.21,2.53a1.28,1.28,0,0,1,1.52,1.27A1.29,1.29,0,0,1,147.19,5a1.45,1.45,0,0,1-.76-.52,1.26,1.26,0,0,1-.1-1.23,1.21,1.21,0,0,1,.88-.73ZM166.53,3a1.28,1.28,0,0,1,1.26-.42,1.26,1.26,0,0,1,.83.66,1.27,1.27,0,0,1-.51,1.67,1.3,1.3,0,0,1-1.56-.26A1.28,1.28,0,0,1,166.53,3Z"/><path class="cls-6" d="M138.81,3.38a3.16,3.16,0,0,0,.48-.36l0,0a9.38,9.38,0,0,1,0,1.06c0,1,0,2.12,0,3.17h-5.91c0-.22.14-.36.31-.46,1-.63,1.93-1.32,2.91-1.95a1.74,1.74,0,0,0,.29-.25C137.55,4.21,138.18,3.8,138.81,3.38Zm36.79-.13a.42.42,0,0,1,.07-.24,6.05,6.05,0,0,0,.77.56L178,4.64a1.19,1.19,0,0,0,.23.22c.46.29.9.62,1.36.88a2.33,2.33,0,0,0,.5.39,15.59,15.59,0,0,0,1.33.84c.12.07.08.22.08.33h-5.9c0-.27,0-.54,0-.8,0-1.09,0-2.17,0-3.25Z"/><path class="cls-7" d="M181.53,7.3h-5.9c0-.27,0-.54,0-.8,0-1.09,0-2.17,0-3.25a.42.42,0,0,1,.07-.24c.14-.28.25-.63.58-.76.6-.23,1.23-.4,1.83-.63a.38.38,0,0,0-.11-.38c-.81-.29-1.62-.6-2.42-.9a2.82,2.82,0,0,0-.8-.23h-34.6a2.36,2.36,0,0,0-.44.11l-2.6,1c-.12,0-.18.13-.24.21a1.48,1.48,0,0,1,0,.21c.6.25,1.23.39,1.84.63.32.13.42.48.57.77l0,0a9.38,9.38,0,0,1,0,1.06c0,1,0,2.12,0,3.17h-5.91c0,.12,0,.23.16.19,2.13,0,4.24,0,6.37,0,3.16,0,6.32,0,9.48,0l0,0a1.63,1.63,0,0,0,.44,0c5.72,0,11.45,0,17.18,0,1.8,0,3.61,0,5.42,0,3,0,6,0,8.94,0,.09,0,.12-.09.08-.19Zm-35.2-4a1.21,1.21,0,0,1,.88-.73,1.28,1.28,0,0,1,1.52,1.27A1.29,1.29,0,0,1,147.19,5a1.45,1.45,0,0,1-.76-.52,1.26,1.26,0,0,1-.1-1.23Zm20.2-.3a1.28,1.28,0,0,1,1.26-.42,1.26,1.26,0,0,1,.83.66,1.27,1.27,0,0,1-.51,1.67,1.3,1.3,0,0,1-1.56-.26A1.28,1.28,0,0,1,166.53,3Z"/><path class="cls-8" d="M168.25,10.27c.1,0-.49-.56-.38-.59a1.25,1.25,0,0,1,1,0c.49.26.37.87.31,1.1a1.09,1.09,0,0,1-.37.57.62.62,0,0,1-.34.15c.06-.33-.14-.38-.15-.72Z"/><path class="cls-9" d="M146.61,10.64c0,.34-.21.39-.15.72a.62.62,0,0,1-.34-.15,1.09,1.09,0,0,1-.37-.57c-.06-.23-.18-.84.31-1.1a1.25,1.25,0,0,1,1,.05c.11,0-.47.61-.38.59l-.09.46Z"/><path class="cls-5" d="M167.36,14.61a.38.38,0,0,1,.31-.09,15.65,15.65,0,0,1-3.19,4.89,4.45,4.45,0,0,1-.48.38l-.48.34-.46.33a6.43,6.43,0,0,1-1.15.63,11.14,11.14,0,0,1-2.47.8,6.87,6.87,0,0,1-1,.14,5.64,5.64,0,0,1-1.3.06c-.23,0-.44-.09-.67-.06l-.6-.11c-.2,0-.4-.08-.6-.14-3.1-1-6.15-3.33-7-6.54a3.49,3.49,0,0,1-.06-.65l.3.56a9.93,9.93,0,0,0,6.72,5.57c.24.11.5.07.73.17a1.84,1.84,0,0,1,.62.06h2.09a1.27,1.27,0,0,0,.28-.06,9,9,0,0,0,3.36-.84l.63-.31a5.48,5.48,0,0,0,.52-.31,5.36,5.36,0,0,0,.49-.34A11.15,11.15,0,0,0,167,15.34Z"/><path class="cls-10" d="M166.26,20.62a14.63,14.63,0,0,1,6.66-1.85,10,10,0,0,1,2.25.05,3.05,3.05,0,0,1,1.37.58,3.07,3.07,0,0,1-.58-.1,9.53,9.53,0,0,0-1.69-.08,18,18,0,0,0-4.85.57,11,11,0,0,0-2.41,1,11.85,11.85,0,0,0-3.42,2.8,14.67,14.67,0,0,0-3.16,6.92c-.23,1.34-.5,2.68-.71,4-.34,0-.68,0-1,0l-4.47,0c-.32,0-.63-.07-.95-.05-2.7,0-5.41,0-8.12,0l.06,0c2-.21,4-.45,6-.65h7.65c.08,0,.23,0,.24-.08.21-1.1.41-2.2.62-3.29A16.08,16.08,0,0,1,161.23,26,13,13,0,0,1,166.26,20.62Z"/><path class="cls-11" d="M169.42,19.79a18,18,0,0,1,4.85-.57,9.53,9.53,0,0,1,1.69.08,3.07,3.07,0,0,0,.58.1,2.32,2.32,0,0,1,.65,1,16.71,16.71,0,0,1,.64,2.78,2.13,2.13,0,0,1-.13,1.15,1.44,1.44,0,0,1-.93.6c-1.3.34-2.67,0-4,.34A4.88,4.88,0,0,0,170,27a7.91,7.91,0,0,0-1.47,3.49c-.18,1.11-.41,2.22-.59,3.34a6.79,6.79,0,0,0-.18.78c1.28,0,2.56,0,3.84,0,.49,0,1,0,1.46,0a3.69,3.69,0,0,1,.12,2,7.34,7.34,0,0,1-.61,2.15,2.43,2.43,0,0,1-1.37,1.3,2.71,2.71,0,0,1-1,.1c-1.14,0-2.28,0-3.41,0-.19.84-.31,1.69-.47,2.53-.3,1.65-.59,3.3-.89,5,0,.06,0,.17,0,.23h0c-3,0-5.91,0-8.87,0,0,0,0-.07,0-.1s0-.11,0-.15a1.5,1.5,0,0,1,0,.2c.18,0,.52.12.56-.15.46-2.49.89-5,1.36-7.48a1.5,1.5,0,0,0-.56,0,1.52,1.52,0,0,1-.09.28l.05-.3h-5.53c-.45,0-.91,0-1.36,0-.76,0-1.54,0-2.3-.08-.95,0-1.89-.09-2.84-.09-.74-.07-1.49,0-2.24-.08-.49-.06-1,0-1.49-.06-.8-.08-1.62,0-2.43-.11s-1.7-.07-2.55-.09c0,0,0,0,0,0,.28,0,.56,0,.84,0,.63-.08,1.27,0,1.9-.11s1.31-.09,2-.09,1.17,0,1.76-.12,1.35-.09,2-.09,1.13,0,1.7-.11,1.3-.1,2-.09,1.3-.05,1.94-.12c-.06-.25-.11-.5-.16-.75s-.24-.12-.36-.14l-4.39-.63c.09-.07.22,0,.33-.05l3.4-.27c.26,0,.51-.06.77-.07a8.75,8.75,0,0,0-.34-1.06c-2.43-.38-4.86-.71-7.28-1.11.63-.1,1.26-.15,1.89-.21,2.71,0,5.42,0,8.13,0,.31,0,.62.06.94,0q2.24,0,4.47,0c.34,0,.68,0,1,0,.21-1.36.48-2.7.71-4a14.67,14.67,0,0,1,3.16-6.92,11.85,11.85,0,0,1,3.42-2.8A11,11,0,0,1,169.42,19.79Z"/><path class="cls-10" d="M168,33.8h3.87a1.37,1.37,0,0,1,1.25.78c-.49,0-1,0-1.46,0-1.28,0-2.56,0-3.84,0a6.79,6.79,0,0,1,.18-.78Zm-10,6.34a1.5,1.5,0,0,1,.56,0c-.47,2.49-.9,5-1.36,7.48,0,.27-.38.17-.56.15a1.5,1.5,0,0,0,0-.2c.43-2.38.84-4.77,1.29-7.16a1.52,1.52,0,0,0,.09-.28Z"/><path class="cls-12" d="M168.56,10.46a.65.65,0,0,1-.06-.34h-.06a.78.78,0,0,0-.65-.6.69.69,0,0,0-.69.22c-.27.37-.15.83-.16,1.25,0,0,0,.07,0,.1a5.69,5.69,0,0,1-.08.82.58.58,0,0,0-.06.26,6.33,6.33,0,0,1-.66,1.84.68.68,0,0,0-.13.27,9.48,9.48,0,0,1-.7,1,.52.52,0,0,0-.1.11,6.37,6.37,0,0,1-.57.59l-.12.09a4.89,4.89,0,0,1-.76.6l-.11.08a10.91,10.91,0,0,1-5.89,1.63,10.8,10.8,0,0,1-5.06-1.07l-.13-.05a5.88,5.88,0,0,1-.77-.44l-.17-.09a5,5,0,0,1-.71-.5l-.24-.18a6.22,6.22,0,0,1-.71-.64.87.87,0,0,0-.16-.17,6.81,6.81,0,0,1-1.62-2.72,8.23,8.23,0,0,1-.28-2.53.9.9,0,0,0-1.16-.35c-.17.12-.19.34-.32.5a7.93,7.93,0,0,0,2.27,6.07.1.1,0,0,0,.07.11c.27.25.53.51.81.75a.73.73,0,0,0,.16.14c.27.22.56.42.84.63l.17.11a7.81,7.81,0,0,0,1.13.62.36.36,0,0,0,.1.07,11.93,11.93,0,0,0,4.09,1.17,2.42,2.42,0,0,1,.47.05c.68,0,1.35,0,2,0a12.2,12.2,0,0,0,6-1.93l0,0,.16-.13c.27-.2.54-.42.81-.64l.19-.16a9.45,9.45,0,0,0,.9-1l0,0,.07-.13c.23-.31.44-.64.65-1l.06-.08,0,0,.09-.1a8.16,8.16,0,0,0,.82-2.39.12.12,0,0,0,.07-.11,7.22,7.22,0,0,0,.08-.8,4.85,4.85,0,0,0,.05-1Z"/><g class="cls-13"><path class="cls-14" d="M145.92,10.23c.55.17,1.81-.26,2.16.14m-1.85,1.53c.53-.18,1.66-.61,2.12-.36m-1.57,2c.25.08.75-.36,1-.49a3.5,3.5,0,0,1,1.16-.41m-1.35,2.66a3.9,3.9,0,0,1,.95-.95c.38-.26,1.4-1,1.85-.72m-2,2.93c.3-.23.42-.65.74-.9a6.37,6.37,0,0,1,1.34-.54m-.8,2.38c.09-.65.75-1.44,1.39-1.39m-.41,2.31c.34,0,.62-.79.85-1a2.13,2.13,0,0,1,1.14-.63m0,2.48c0-.48.47-1.83,1-1.76m.41,2.21c0-.56.26-2.24.94-2.3m.54,3.2a2.92,2.92,0,0,1,.5-2.48m1.36,2.66c-.07-.65-.72-2,0-2.48m2,2a3.74,3.74,0,0,1-.36-2.17M161.22,20a4.45,4.45,0,0,1-.63-1.34c-.05-.3,0-.73,0-1m2.22,1.63a2.35,2.35,0,0,1-.5-2.12m2,1.44a5.28,5.28,0,0,1-.77-2.3m2.26.86c-.57-.39-1.3-1.09-1.22-1.85m2.8.63A4.87,4.87,0,0,1,165,14.34m3.16.18c-.63-.14-2.7-.94-2.57-1.76m3.25.18A9.56,9.56,0,0,1,166,11.72m3.3-.22a9.1,9.1,0,0,1-1.9-.32c-.62-.11-1.2-.32-1.8-.45m3.16-.63a7.87,7.87,0,0,1-3-.64"/></g><path class="cls-15" d="M32.85,13.35a4,4,0,0,1,2.95.37,2,2,0,0,1,.66,1.72,3,3,0,0,1-1.37,2.69,4.62,4.62,0,0,1-2.7.38,2,2,0,0,1-1.54-1c-.7-1.61.17-3.88,2-4.2ZM3.5,14.52a1.16,1.16,0,0,1,1.13-1c4.27,0,8.53,0,12.79,0a1.24,1.24,0,0,1,1.18.57c.32.56,0,1.17,0,1.74-.13.78-.09,1.82-1,2.11-3.11.1-6.22,0-9.32,0-.3,2-.58,3.91-.87,5.85,0,.07,0,.24,0,.31h6.83a1.16,1.16,0,0,1,1.24,1.16c-.05.69-.2,1.35-.29,2a1.22,1.22,0,0,1-.93,1c-2.53.05-5.11-.06-7.64.05-.41,2.8-.89,5.59-1.32,8.39a1.15,1.15,0,0,1-1,1c-1.06,0-2.11,0-3.17,0a1.13,1.13,0,0,1-1-1.39Q1.74,25.44,3.5,14.52Zm18.8-1c1-.08,1.95,0,2.91,0a1.2,1.2,0,0,1,1.24,1A11.83,11.83,0,0,1,26.26,16c-.77,5-1.57,9.92-2.35,14.88a5.83,5.83,0,0,0-.07,2.46c.28.82,1.52.47,1.81,1.32a6,6,0,0,1-.07,2.11c-.06.92-1.11,1.13-1.83,1.33a4.9,4.9,0,0,1-4.61-1.22,4.28,4.28,0,0,1-.7-3.46q1.47-9.45,3-18.9a1.1,1.1,0,0,1,.9-1Zm36.74,1a1.18,1.18,0,0,1,1.11-1H63a1.18,1.18,0,0,1,1.11,1.41c-.65,4.11-1.32,8.21-2,12.32a4.28,4.28,0,0,0,2.78-1.13,17,17,0,0,0,2.79-4.36c.25-.61.37-1.5,1.17-1.61,1.06,0,2.13,0,3.18,0a1.11,1.11,0,0,1,1,1.46,13.39,13.39,0,0,1-1.22,2.76A20.93,20.93,0,0,1,68,29.16c.68,2.05,1.55,4.05,2.31,6.07.22.66.76,1.44.26,2.09s-1.65.39-2.44.48c-.84-.09-2,.33-2.5-.61-.87-2-1.59-4.09-2.48-6.11a10.27,10.27,0,0,1-1.57,0c0,.08-.12.22-.15.3-.28,1.85-.58,3.7-.87,5.55a1.11,1.11,0,0,1-.95.87c-1,0-2,0-3,0a1.17,1.17,0,0,1-1-.65,2,2,0,0,1,0-1.2Q57.35,25.24,59,14.52Zm51.43,2a1.16,1.16,0,0,1,1.15-.85c.74,0,1.5,0,2.26,0a1.12,1.12,0,0,1,1,1.22c-.11,1.06-.37,2.11-.45,3.17.72,0,1.47,0,2.19,0a1.14,1.14,0,0,1,1.07,1.29c-.09.58-.22,1.13-.31,1.71a1.21,1.21,0,0,1-1,.94c-.88.06-1.75,0-2.62.06-.37,2.48-.78,5-1.17,7.44a2.61,2.61,0,0,0,.24,1.72c.5.61,1.37.39,2.07.46a1.22,1.22,0,0,1,.82,1.33c-.1.63-.11,1.26-.26,1.87s-1,.82-1.63,1a6.42,6.42,0,0,1-5.13-.53c-1.39-1-1.61-2.78-1.46-4.34.39-3,1-6,1.33-9-.51,0-1.14.09-1.53-.37s-.22-1.15-.15-1.72.09-1.41.76-1.74a7.5,7.5,0,0,1,1.72-.13c.35-1.19.68-2.37,1-3.54Zm-10.45,6a10,10,0,0,1,4.18-2.61A1.18,1.18,0,0,1,105.79,21c-.13,1-.37,2-.54,3a1.16,1.16,0,0,1-1,1,8.77,8.77,0,0,0-4.65,2.71c-.31.38-.78.75-.83,1.29-.39,2.59-.8,5.18-1.21,7.77a1.13,1.13,0,0,1-1.11,1.06H93.65a1.16,1.16,0,0,1-1.15-1.26c.82-5.13,1.63-10.23,2.43-15.36a1.11,1.11,0,0,1,.94-1.07c.69,0,1.37,0,2.07,0A1.11,1.11,0,0,1,99,21.16c0,.8-.08,1.61-.09,2.43A9.12,9.12,0,0,0,100,22.53ZM30.84,20.18a20.46,20.46,0,0,1,3-.09,1.13,1.13,0,0,1,1.28.87A6.42,6.42,0,0,1,35,22.48q-1.14,7.13-2.26,14.26a1.13,1.13,0,0,1-1.07,1.06c-1,0-2,0-3,0a1.16,1.16,0,0,1-.92-1.41c.79-4.94,1.55-9.86,2.35-14.8A1.45,1.45,0,0,1,30.84,20.18Zm59.89.24a29.47,29.47,0,0,0-8.37-.61,9.62,9.62,0,0,0-6.55,3.5A12.84,12.84,0,0,0,73.44,33a6.5,6.5,0,0,0,2.28,4.23,5.6,5.6,0,0,0,4.35.84,10.47,10.47,0,0,0,5.27-3.22c.07.63-.07,1.26,0,1.87a1.15,1.15,0,0,0,1.13,1.07h1.89a1.14,1.14,0,0,0,1.06-1.06c.79-5,1.59-10,2.36-15a1.16,1.16,0,0,0-1-1.32Zm-5.2,8.72a14.29,14.29,0,0,1-3,3.72,3,3,0,0,1-2.42.94c-.89-.18-1.32-1.11-1.52-1.9a8.14,8.14,0,0,1,1.13-6.13,4,4,0,0,1,2.31-1.72,8.1,8.1,0,0,1,4.09.2l.08.08c-.17,1.61-.48,3.2-.72,4.81ZM54.4,26.36a7.64,7.64,0,0,0-1.82-5.18,4.67,4.67,0,0,0-3.51-1.46,8.36,8.36,0,0,0-5.74,2.39c-.35.27-.59.68-1,.9,0-.61,0-1.22,0-1.85a1.09,1.09,0,0,0-1.07-1.07H39.42a1.17,1.17,0,0,0-1.11,1.09C37.15,28.58,36,36,34.8,43.39a1.15,1.15,0,0,0,1.13,1.37A24.8,24.8,0,0,0,39,44.68c.81-.22.79-1.16.92-1.85.3-1.63.5-3.25.69-4.9,3.64.7,7.88.22,10.6-2.54a12.77,12.77,0,0,0,3.15-9Zm-5.19,1.87a7.49,7.49,0,0,1-1.9,4.67c-1.54,1.46-3.87,1.25-5.76.75a1.51,1.51,0,0,1-.11-.22c.3-1.61.45-3.24.82-4.83a11.31,11.31,0,0,1,4.09-4.37,1.72,1.72,0,0,1,2,.37,5.2,5.2,0,0,1,.81,3.63Z"/></g></g></svg>