<svg xmlns="http://www.w3.org/2000/svg" viewBox="0 0 27.73 27.73"><defs><style>.cls-1{fill:#fff;}.cls-2{fill:#00689f;}</style></defs><g id="Layer_2" data-name="Layer 2"><g id="Layer_1-2" data-name="Layer 1"><path class="cls-1" d="M27.73,13.87A13.87,13.87,0,1,1,13.87,0,13.85,13.85,0,0,1,27.73,13.87Z"/><path class="cls-2" d="M10.1,20.64ZM17.57,7.4Z"/><path class="cls-2" d="M20.67,14.78v5.09h-3V15.12c0-1.19-.43-2-1.5-2a1.63,1.63,0,0,0-1.52,1.08,2.21,2.21,0,0,0-.09.72v5h-3s0-8,0-8.88h3v1.26l0,0h0v0a2.92,2.92,0,0,1,2.66-1.47c1.94,0,3.4,1.27,3.4,4ZM7.06,19.87h3V11h-3ZM10.11,8A1.53,1.53,0,1,1,8.59,6.45,1.52,1.52,0,0,1,10.11,8Z"/></g></g></svg>