<svg xmlns="http://www.w3.org/2000/svg" viewBox="0 0 73.06 60"><defs><style>.cls-1{fill:#231f20;}.cls-2{fill:#58595b;}.cls-3{fill:#0068a8;}</style></defs><g id="Layer_2" data-name="Layer 2"><g id="Layer_5" data-name="Layer 5"><rect class="cls-1" y="49.93" width="0.69" height="3.14"/><polygon class="cls-1" points="1.38 49.94 2.02 49.94 3.49 51.87 3.49 49.94 4.17 49.94 4.17 53.08 3.58 53.08 2.06 51.08 2.06 53.08 1.38 53.08 1.38 49.94"/><polygon class="cls-1" points="14.97 50.57 14.01 50.57 14.01 49.94 16.61 49.94 16.61 50.57 15.66 50.57 15.66 53.08 14.97 53.08 14.97 50.57"/><path class="cls-1" d="M6.05,52.45a.89.89,0,0,0,1-.94H7a.9.9,0,0,0-1-.95H5.52v1.89ZM4.83,49.93H6.05A1.57,1.57,0,0,1,7.72,51.5h0a1.57,1.57,0,0,1-1.67,1.57H4.83Z"/><path class="cls-1" d="M8.19,51.73v-1.8h.69v1.78c0,.51.25.78.67.78s.68-.26.68-.76v-1.8h.69v1.78a1.26,1.26,0,0,1-1.37,1.42,1.25,1.25,0,0,1-1.36-1.4"/><path class="cls-1" d="M11.32,52.62l.4-.49a1.48,1.48,0,0,0,.94.38c.28,0,.45-.11.45-.3h0c0-.18-.1-.27-.63-.4s-1-.34-1-1h0a1,1,0,0,1,1.1-1,1.76,1.76,0,0,1,1.16.4l-.35.52a1.53,1.53,0,0,0-.82-.31c-.26,0-.4.12-.4.27h0c0,.21.13.28.67.42s1,.39,1,.94h0c0,.62-.48,1-1.15,1a2,2,0,0,1-1.33-.5"/><path class="cls-1" d="M18.44,51.46c.33,0,.53-.18.53-.44h0c0-.3-.21-.45-.55-.45h-.68v.9Zm-1.39-1.53h1.43a1.3,1.3,0,0,1,.92.32,1,1,0,0,1,.27.72h0A1,1,0,0,1,19,52l.77,1.13H19l-.67-1h-.54v1h-.69Z"/><rect class="cls-1" x="20.23" y="49.93" width="0.69" height="3.14"/><path class="cls-1" d="M23.41,51.76l-.42-1-.41,1Zm-.73-1.85h.64l1.34,3.17h-.72l-.28-.71H22.33l-.29.71h-.7Z"/><polygon class="cls-1" points="25.05 49.94 25.74 49.94 25.74 52.45 27.31 52.45 27.31 53.08 25.05 53.08 25.05 49.94"/><path class="cls-1" d="M30.39,50.72h0a.28.28,0,0,0-.3-.29.3.3,0,0,0-.31.32h0a.57.57,0,0,0,.19.39c.27-.11.42-.22.42-.42m0,1.66-.6-.61a.45.45,0,0,0-.29.41h0a.39.39,0,0,0,.44.37.76.76,0,0,0,.45-.18m.39.39a1.44,1.44,0,0,1-.92.35,1,1,0,0,1-1.06-.91h0a.93.93,0,0,1,.61-.87,1,1,0,0,1-.22-.62h0a.87.87,0,0,1,1-.83.81.81,0,0,1,.89.79h0a.87.87,0,0,1-.66.82l.41.42a5.47,5.47,0,0,0,.31-.54l.51.28a6.65,6.65,0,0,1-.42.66l.46.46-.5.36Z"/><polygon class="cls-1" points="33.27 49.94 33.96 49.94 33.96 52.45 35.52 52.45 35.52 53.08 33.27 53.08 33.27 49.94"/><path class="cls-1" d="M38.24,51.51h0a1,1,0,0,0-1-1,.94.94,0,0,0-.94,1h0a1,1,0,0,0,.95,1,.94.94,0,0,0,.94-1m-2.61,0h0a1.62,1.62,0,0,1,1.67-1.63A1.6,1.6,0,0,1,39,51.5h0a1.67,1.67,0,0,1-3.33,0"/><path class="cls-1" d="M39.34,51.51h0A1.62,1.62,0,0,1,41,49.88a1.72,1.72,0,0,1,1.23.43l-.44.53a1.11,1.11,0,0,0-.82-.32.94.94,0,0,0-.9,1h0a.94.94,0,0,0,.95,1,1.06,1.06,0,0,0,.65-.19v-.45H41v-.59h1.36v1.36a2,2,0,0,1-1.34.5,1.57,1.57,0,0,1-1.65-1.62"/><rect class="cls-1" x="42.93" y="49.93" width="0.69" height="3.14"/><path class="cls-1" d="M44.1,52.62l.41-.49a1.43,1.43,0,0,0,.93.38c.29,0,.46-.11.46-.3h0c0-.18-.11-.27-.64-.4s-1-.34-1-1h0a1,1,0,0,1,1.1-1,1.8,1.8,0,0,1,1.17.4l-.36.52a1.5,1.5,0,0,0-.82-.31c-.26,0-.4.12-.4.27h0c0,.21.13.28.68.42s1,.39,1,.94h0c0,.62-.47,1-1.15,1a2,2,0,0,1-1.33-.5"/><polygon class="cls-1" points="47.75 50.57 46.8 50.57 46.8 49.94 49.4 49.94 49.4 50.57 48.44 50.57 48.44 53.08 47.75 53.08 47.75 50.57"/><rect class="cls-1" x="49.86" y="49.93" width="0.69" height="3.14"/><path class="cls-1" d="M51.11,51.51h0a1.59,1.59,0,0,1,1.63-1.63,1.62,1.62,0,0,1,1.24.49l-.44.5a1.15,1.15,0,0,0-.8-.35.93.93,0,0,0-.91,1h0a.93.93,0,0,0,.91,1,1.09,1.09,0,0,0,.82-.37l.44.45a1.62,1.62,0,0,1-1.29.56,1.58,1.58,0,0,1-1.6-1.62"/><path class="cls-1" d="M54.24,52.62l.41-.49a1.45,1.45,0,0,0,.94.38c.28,0,.45-.11.45-.3h0c0-.18-.11-.27-.63-.4s-1-.34-1-1h0a1,1,0,0,1,1.1-1,1.79,1.79,0,0,1,1.16.4l-.36.52a1.47,1.47,0,0,0-.81-.31c-.27,0-.41.12-.41.27h0c0,.21.14.28.68.42s1,.39,1,.94h0c0,.62-.48,1-1.16,1a2,2,0,0,1-1.33-.5"/><path class="cls-1" d="M59.72,51.52a.49.49,0,0,0,.55-.48h0c0-.31-.22-.47-.56-.47h-.53v1Zm-1.23-1.59h1.28A1.08,1.08,0,0,1,61,51h0a1.12,1.12,0,0,1-1.27,1.1h-.52v.95h-.69Z"/><path class="cls-1" d="M62.87,51.76l-.41-1-.42,1Zm-.72-1.85h.63l1.35,3.17h-.72l-.29-.71H61.79l-.28.71H60.8Z"/><path class="cls-1" d="M65.91,51.46c.33,0,.53-.18.53-.44h0c0-.3-.21-.45-.55-.45h-.68v.9Zm-1.39-1.53H66a1.3,1.3,0,0,1,.92.32,1,1,0,0,1,.26.72h0a1,1,0,0,1-.67,1l.77,1.13h-.81l-.67-1h-.54v1h-.69Z"/><polygon class="cls-1" points="67.66 49.94 68.35 49.94 68.35 51.31 69.63 49.94 70.46 49.94 69.18 51.27 70.52 53.08 69.69 53.08 68.72 51.74 68.35 52.12 68.35 53.08 67.66 53.08 67.66 49.94"/><path class="cls-1" d="M70.58,52.62l.41-.49a1.45,1.45,0,0,0,.94.38c.28,0,.45-.11.45-.3h0c0-.18-.11-.27-.63-.4s-1-.34-1-1h0a1,1,0,0,1,1.09-1,1.8,1.8,0,0,1,1.17.4l-.36.52a1.5,1.5,0,0,0-.81-.31c-.27,0-.41.12-.41.27h0c0,.21.14.28.68.42s1,.39,1,.94h0c0,.62-.47,1-1.15,1a2,2,0,0,1-1.33-.5"/><polygon class="cls-2" points="0.07 0 40.04 0 40.04 12.59 18.56 12.59 16.53 12.59 16.53 14.63 16.53 20.73 16.53 22.76 18.56 22.76 29.33 22.76 29.33 20.73 18.56 20.73 18.56 14.63 40.04 14.63 40.04 35.31 0.07 35.31 0.07 0"/><rect class="cls-3" x="42.07" width="30.99" height="20.73"/><rect class="cls-3" x="42.07" y="22.76" width="30.99" height="12.55"/><path class="cls-3" d="M4,41H7.73v.25l0,1.34a5.72,5.72,0,0,1-.36,2.11,1.88,1.88,0,0,1-1.79,1l-.79,0H4a6,6,0,0,1-2.94-.58c-.66-.39-1-1.32-1-2.78v-.28c0-.1,0-.2,0-.3V40.7c0-.13,0-.24,0-.36a5.73,5.73,0,0,1,.16-1.09,2.28,2.28,0,0,1,.52-1,2.19,2.19,0,0,1,1.05-.67,5.2,5.2,0,0,1,1.24-.22l.5,0h.48a8,8,0,0,1,2.62.35c.66.24,1,1,1.06,2.31H5.47a.83.83,0,0,0-.36-.64,1.76,1.76,0,0,0-.77-.14H3.63a2.42,2.42,0,0,0-.47.07.87.87,0,0,0-.4.19.82.82,0,0,0-.29.42,2.35,2.35,0,0,0-.09.53v.64c0,.06,0,.12,0,.17v.17c0,.23,0,.45,0,.68s0,.45,0,.67c0,.55.19.88.44,1A2.62,2.62,0,0,0,4,44a2.93,2.93,0,0,0,1.14-.19c.29-.13.43-.46.43-1v-.22H4Zm4.84,4.73V37.4H13A3.82,3.82,0,0,1,15.3,38,2.71,2.71,0,0,1,16,40.16a4.93,4.93,0,0,1-.2,1.53c-.14.39-.6.66-1.38.83v.08a1.59,1.59,0,0,1,1.15.47,1.7,1.7,0,0,1,.37,1.18v1.52H13.65V44.65a1.4,1.4,0,0,0-.2-.79.82.82,0,0,0-.74-.3H11v2.21ZM11,41.64h1.78q.62,0,.75-.27a2.25,2.25,0,0,0,.13-.83,2.21,2.21,0,0,0-.14-.9c-.09-.2-.38-.29-.85-.29l-1.67,0Zm8.34-2.39v1.5h3.56v1.56H19.38v1.62h3.89v1.84H17.13V37.4h6.06v1.85Zm7.27,0v1.5h3.57v1.56H26.65v1.62h3.89v1.84H24.41V37.4h6.06v1.85ZM40,37.4v8.37h-3.8l-2.36-6.44h-.1l.1,6.44h-2.2V37.4h3.78l2.36,6.36h.08l-.08-6.36Z"/><path class="cls-2" d="M42.07,45.78V37.41h4.61a3.57,3.57,0,0,1,1.84.43,1.85,1.85,0,0,1,.69,1.71,3.4,3.4,0,0,1-.2,1.26c-.13.36-.5.59-1.12.69v.06a1.49,1.49,0,0,1,1.16.54,2.31,2.31,0,0,1,.3,1.28,2.46,2.46,0,0,1-.57,1.9,3.17,3.17,0,0,1-2.06.5Zm2.28-1.85h1.51a2.83,2.83,0,0,0,.88-.09c.23-.07.35-.31.35-.72s-.09-.63-.27-.7a2.38,2.38,0,0,0-.81-.11H44.35Zm0-3.17H46a2.28,2.28,0,0,0,.7-.11c.19-.06.28-.26.28-.6a.89.89,0,0,0-.16-.62.8.8,0,0,0-.61-.17H44.35Zm11.06,3.57h-3L52,45.78H49.6l2.54-8.37h3.45l2.58,8.37H55.85ZM55,42.72,53.9,39.08l-1,3.64ZM65.51,40H63.35c0-.42-.09-.68-.26-.79a1.65,1.65,0,0,0-.86-.16H61.9a2.77,2.77,0,0,0-.78.11c-.23.08-.35.3-.35.64a.94.94,0,0,0,.15.58.74.74,0,0,0,.55.21l.39,0,.41,0h.11a8.74,8.74,0,0,1,2.33.38c.7.21,1.05.9,1.05,2v.36c0,.12,0,.24,0,.37a3.3,3.3,0,0,1-.15.76,1.3,1.3,0,0,1-.43.63,2.13,2.13,0,0,1-.91.46,5.2,5.2,0,0,1-1,.14l-.3,0h-.86a7.18,7.18,0,0,1-2.65-.38q-.9-.37-.9-2.37h2.15a1.42,1.42,0,0,0,.17.74c.11.18.34.27.7.27h1a1.65,1.65,0,0,0,.73-.12c.2-.09.3-.32.3-.7s-.1-.57-.28-.64a2,2,0,0,0-.72-.14h-.08l-.42,0-.38,0A6.53,6.53,0,0,1,59.34,42c-.55-.26-.83-1-.83-2.22A2.57,2.57,0,0,1,59,38.08a2.22,2.22,0,0,1,1.61-.67l.75,0c.25,0,.49,0,.74,0a8.12,8.12,0,0,1,2.45.31c.65.21,1,.91,1,2.11v.12a.2.2,0,0,0,0,.07V40Zm3.62-.77v1.51h3.6v1.55h-3.6v1.62h3.93v1.85H66.85V37.41H73v1.84Z"/><path class="cls-1" d="M4.81,57.43H3.89v-.57H6.41v.57H5.49v2.5H4.81Z"/><path class="cls-1" d="M7.16,56.86h.68V58H9.08V56.86h.68v3.07H9.08V58.61H7.84v1.32H7.16Z"/><path class="cls-1" d="M10.76,56.86h2.29v.57H11.43v.65h1.49v.53H11.43v.75h1.66v.57H10.76Z"/><path class="cls-1" d="M15.54,56.86h.68V58h1.24V56.86h.68v3.07h-.68V58.61H16.22v1.32h-.68Z"/><path class="cls-1" d="M19.13,56.86h.68v3.07h-.68Z"/><path class="cls-1" d="M20.8,56.86h1.66a.84.84,0,0,1,.9.85.76.76,0,0,1-.49.77h0c.34.08.43.4.45.71a1.79,1.79,0,0,0,.13.73h-.67a2.73,2.73,0,0,1-.11-.73c-.05-.33-.17-.47-.51-.47h-.68v1.2H20.8Zm.68,1.39h.74c.3,0,.47-.13.47-.44s-.17-.43-.47-.43h-.74Z"/><path class="cls-1" d="M25.15,56.86h.7L27,59.93h-.7l-.23-.68H24.91l-.24.68H24Zm-.06,1.88h.79l-.38-1.12h0Z"/><path class="cls-1" d="M27.66,56.86h.67l1.29,2.06h0V56.86h.63v3.07h-.68L28.3,57.87h0v2.06h-.64Z"/><path class="cls-1" d="M32.09,56.86h.7l1.15,3.07h-.71L33,59.25H31.85l-.24.68h-.68ZM32,58.74h.79l-.38-1.12h0Z"/><path class="cls-1" d="M34.6,56.86h.67l1.29,2.06h0V56.86h.63v3.07h-.68l-1.28-2.06h0v2.06H34.6Z"/><path class="cls-1" d="M38.19,56.86h1.33a1.34,1.34,0,0,1,1.39,1.52,1.36,1.36,0,0,1-1.39,1.55H38.19Zm.68,2.5h.6c.39,0,.77-.24.77-.92s-.22-1-.89-1h-.48Z"/><path class="cls-1" d="M42.62,56.86h.7l1.15,3.07h-.71l-.23-.68H42.38l-.24.68h-.68Zm-.06,1.88h.8L43,57.62h0Z"/><path class="cls-1" d="M45.13,56.86h.68l1.28,2.06h0V56.86h.63v3.07h-.68l-1.28-2.06h0v2.06h-.64Z"/><path class="cls-1" d="M48.72,56.86h.68v3.07h-.68Z"/><path class="cls-1" d="M54.21,59.58a1,1,0,0,1-.84.42,1.61,1.61,0,0,1,0-3.22,1.24,1.24,0,0,1,1.3,1.09H54a.63.63,0,0,0-.65-.52c-.61,0-.84.52-.84,1.06s.23,1,.84,1a.67.67,0,0,0,.73-.67h-.68v-.5h1.29v1.66h-.43Z"/><path class="cls-1" d="M55.66,56.86h1.66a.84.84,0,0,1,.9.85.76.76,0,0,1-.49.77h0c.33.08.43.4.45.71a1.64,1.64,0,0,0,.13.73h-.68a3.87,3.87,0,0,1-.11-.73c0-.33-.17-.47-.51-.47h-.67v1.2h-.68Zm.68,1.39h.74c.3,0,.46-.13.46-.44s-.16-.43-.46-.43h-.74Z"/><path class="cls-1" d="M60.55,56.78A1.61,1.61,0,1,1,59,58.41,1.49,1.49,0,0,1,60.55,56.78Zm0,2.66c.6,0,.83-.52.83-1s-.23-1.06-.83-1.06-.84.52-.84,1.06S59.94,59.44,60.55,59.44Z"/><path class="cls-1" d="M65.53,58.77c0,.83-.49,1.23-1.31,1.23s-1.31-.4-1.31-1.23V56.86h.67v1.91c0,.33.09.67.64.67s.63-.21.63-.67V56.86h.68Z"/><path class="cls-1" d="M66.51,56.86H67.9a1,1,0,1,1,0,2h-.71v1.1h-.68Zm.68,1.44h.52c.31,0,.59-.06.59-.46s-.28-.46-.59-.46h-.52Z"/><rect class="cls-1" x="0.03" y="58.28" width="2.71" height="0.23"/><rect class="cls-1" x="70.36" y="58.28" width="2.71" height="0.23"/></g></g></svg>