<svg xmlns="http://www.w3.org/2000/svg" xmlns:xlink="http://www.w3.org/1999/xlink" viewBox="0 0 21.53 19.91"><defs><style>.cls-1{isolation:isolate;}.cls-2{opacity:0.5;mix-blend-mode:multiply;fill:url(#radial-gradient);}.cls-3{fill:url(#linear-gradient);}.cls-4{fill:#fff;}</style><radialGradient id="radial-gradient" cx="12.65" cy="-19844.01" r="8.87" gradientTransform="matrix(1, 0, 0, -1, 0, -19832.97)" gradientUnits="userSpaceOnUse"><stop offset="0"/><stop offset="1" stop-color="#fff" stop-opacity="0"/></radialGradient><linearGradient id="linear-gradient" x1="-9283.36" y1="-5393.09" x2="-9277.18" y2="-5374.94" gradientTransform="matrix(-1, 0, 0, 1, -9271.27, 5392.5)" gradientUnits="userSpaceOnUse"><stop offset="0" stop-color="#f9e836"/><stop offset="1" stop-color="#db1ab8"/></linearGradient></defs><g class="cls-1"><g id="Layer_2" data-name="Layer 2"><g id="Layer_5" data-name="Layer 5"><circle class="cls-2" cx="12.65" cy="11.03" r="8.87"/><circle class="cls-3" cx="8.87" cy="8.87" r="8.87"/><path class="cls-4" d="M12,3.53H5.76a1,1,0,0,0-1,1v8.76a1,1,0,0,0,1,1H12a1,1,0,0,0,1-1V4.49A1,1,0,0,0,12,3.53ZM9.5,12.65H5.86v-.56H9.5Zm2.39-1.75h-6v-.56h6Zm0-1.75h-6V8.59h6Zm0-1.74h-6V6.85h6Zm0-1.75h-6V5.1h6Z"/></g></g></g></svg>