<svg xmlns="http://www.w3.org/2000/svg" viewBox="0 0 27.73 27.73"><defs><style>.cls-1{fill:#fff;}.cls-2{fill:#00689f;}</style></defs><g id="Layer_2" data-name="Layer 2"><g id="Layer_1-2" data-name="Layer 1"><path class="cls-1" d="M27.73,13.87A13.87,13.87,0,1,1,13.87,0,13.85,13.85,0,0,1,27.73,13.87Z"/><path class="cls-2" d="M10.1,20.64ZM17.57,7.4Z"/><path class="cls-2" d="M13.83,18.49a4.19,4.19,0,1,0-4.18-4.18A4.19,4.19,0,0,0,13.83,18.49ZM11,14.31a2.81,2.81,0,1,1,2.8,2.81A2.81,2.81,0,0,1,11,14.31Z"/><path class="cls-2" d="M18.49,22.06H9.18A3.18,3.18,0,0,1,6,18.89V9.73A3.18,3.18,0,0,1,9.18,6.56h9.31a3.17,3.17,0,0,1,3.16,3.17v9.16A3.17,3.17,0,0,1,18.49,22.06ZM9.18,7.72a2,2,0,0,0-2,2v9.16a2,2,0,0,0,2,2h9.31a2,2,0,0,0,2-2V9.73a2,2,0,0,0-2-2Z"/></g></g></svg>