<svg xmlns="http://www.w3.org/2000/svg" viewBox="0 0 145.41 69.25"><defs><style>.cls-1{fill:#a70b52;}.cls-2{fill:#fff;}.cls-3{fill:#808183;}</style></defs><g id="Layer_2" data-name="Layer 2"><g id="Layer_5" data-name="Layer 5"><path class="cls-1" d="M34.63,69.25A34.63,34.63,0,1,0,0,34.63,34.63,34.63,0,0,0,34.63,69.25Z"/><path class="cls-2" d="M43.06,46.81H35.89V19.71H33.23V49.49h2.66v0h7.17Z"/><path class="cls-2" d="M61,35.74H43.1V33.08H63.57c0,.51,0,1,0,1.55a29,29,0,1,1-29-29l1.26,0V8.31q-.63,0-1.26,0A26.35,26.35,0,1,0,61,35.81Z"/><path class="cls-2" d="M23.81,27.73a4.07,4.07,0,1,0-4.07-4.07,4.08,4.08,0,0,0,4.07,4.07Z"/><path class="cls-3" d="M86.45,51.62h24.74V44.15H95.53V17.39H86.45ZM141.09,19.8a17.27,17.27,0,0,0-10.85-3.31c-5.18,0-9.5,1.59-12.51,4.59s-4.8,7.77-4.8,13.38c0,6,1.76,11,4.95,14.24a13.32,13.32,0,0,0,9.66,3.82c8.38,0,10.3-5,10.3-5v4.12h7.57V32.29H130.35v6.05h6.93s.07,7.62-7.09,7.62a6.44,6.44,0,0,1-4.68-1.91c-1.94-1.94-3-5.21-3-9.45,0-7,2.79-11.21,7.46-11.21a5.55,5.55,0,0,1,5.67,4.51h9.64c-.5-3.94-1.58-6-4.22-8.1Z"/></g></g></svg>