<svg xmlns="http://www.w3.org/2000/svg" viewBox="0 0 73.25 73.26"><defs><style>.cls-1{fill:#0068a8;}.cls-2,.cls-3{fill:#fff;stroke:#fff;stroke-miterlimit:10;}.cls-2{stroke-width:0.52px;}.cls-3{stroke-width:0.5px;}</style></defs><g id="Layer_2" data-name="Layer 2"><g id="Layer_5" data-name="Layer 5"><rect class="cls-1" width="73.25" height="73.26"/><path class="cls-2" d="M61.92,36.59a1.11,1.11,0,0,0-.18-.58A26.69,26.69,0,0,0,41.33,21.45a28.46,28.46,0,0,0-24.89,8.24,35.47,35.47,0,0,0-5,6.65v.08c0,.09,0,.09-.09.17v.58C15,44.9,22.62,50.39,31.84,51.81a26.55,26.55,0,0,0,4.38.33,28.41,28.41,0,0,0,20.5-8.57,36.06,36.06,0,0,0,4.93-6.4A.88.88,0,0,0,61.92,36.59Zm-6.45,5.82A26.77,26.77,0,0,1,32.2,50.14a24.76,24.76,0,0,1-19-13.47,37.17,37.17,0,0,1,4.56-6A26.79,26.79,0,0,1,41.06,23,25,25,0,0,1,60,36.42,31.83,31.83,0,0,1,55.47,42.41Z"/><path class="cls-3" d="M36.59,25.7A10.89,10.89,0,1,0,47.48,36.59,10.93,10.93,0,0,0,36.59,25.7Zm0,20.12a9.23,9.23,0,1,1,9.23-9.23A9.26,9.26,0,0,1,36.59,45.82Z"/></g></g></svg>