<svg xmlns="http://www.w3.org/2000/svg" xmlns:xlink="http://www.w3.org/1999/xlink" viewBox="0 0 21.53 19.91"><defs><style>.cls-1{isolation:isolate;}.cls-2{opacity:0.5;mix-blend-mode:multiply;fill:url(#radial-gradient);}.cls-3{fill:url(#linear-gradient);}.cls-4{fill:#fff;}</style><radialGradient id="radial-gradient" cx="12.65" cy="-19728.95" r="8.87" gradientTransform="matrix(0.71, 0.71, 0.71, -0.71, 13954.18, -13948.39)" gradientUnits="userSpaceOnUse"><stop offset="0"/><stop offset="1" stop-color="#fff" stop-opacity="0"/></radialGradient><linearGradient id="linear-gradient" x1="5.65" y1="-19736.24" x2="11.83" y2="-19718.09" gradientTransform="matrix(0.92, 0.38, 0.38, -0.92, 7549.8, -18219.69)" gradientUnits="userSpaceOnUse"><stop offset="0" stop-color="#92ee77"/><stop offset="1" stop-color="#007871"/></linearGradient></defs><g class="cls-1"><g id="Layer_2" data-name="Layer 2"><g id="Layer_5" data-name="Layer 5"><circle class="cls-2" cx="12.65" cy="11.03" r="8.87" transform="translate(-4.1 12.18) rotate(-45)"/><circle class="cls-3" cx="8.87" cy="8.87" r="8.87" transform="translate(-2.72 4.07) rotate(-22.5)"/><path class="cls-4" d="M14.18,11.16a2.08,2.08,0,0,0-.53-.33c-.18-.09-1.53-.75-1.78-.84s-.46-.17-.68.16-.66.82-.82,1-.21.17-.46,0A9,9,0,0,1,7.84,9.93,7.57,7.57,0,0,1,6.41,8.16c-.11-.19,0-.28.1-.42A7.54,7.54,0,0,0,7,7.15c.06-.09.17-.31.17-.31a.56.56,0,0,0,0-.53c0-.09-.74-1.75-.8-1.91-.2-.47-.41-.49-.61-.48s-1,0-1.31.33l-.05,0a3,3,0,0,0-.88,2.15,3.48,3.48,0,0,0,.14.91,5.93,5.93,0,0,0,.94,1.81s.68.94,1,1.33a9.2,9.2,0,0,0,3.46,2.59,8.26,8.26,0,0,0,2.57.74c.17,0,.51-.09.59-.09A2.74,2.74,0,0,0,14,12.46,2.09,2.09,0,0,0,14.18,11.16Z"/></g></g></g></svg>