<svg xmlns="http://www.w3.org/2000/svg" viewBox="0 0 12.75 12.75"><defs><style>.cls-1{fill:#0068a8;}</style></defs><g id="Layer_2" data-name="Layer 2"><g id="Layer_5" data-name="Layer 5"><path class="cls-1" d="M6.38,0a6.38,6.38,0,1,0,6.37,6.38A6.37,6.37,0,0,0,6.38,0Zm4,9.13a2.06,2.06,0,0,1-1.4,1c-.06,0-.32.07-.45.07a6.42,6.42,0,0,1-2-.57,7,7,0,0,1-2.66-2c-.26-.3-.77-1-.78-1a4.56,4.56,0,0,1-.72-1.4,2.59,2.59,0,0,1-.11-.69,2.24,2.24,0,0,1,.68-1.66l0,0c.22-.24.93-.25,1-.25s.32,0,.47.37c0,.12.58,1.4.62,1.46a.44.44,0,0,1,0,.41,2.21,2.21,0,0,1-.13.24,4.56,4.56,0,0,1-.38.45c-.11.11-.17.18-.08.33a6,6,0,0,0,1.1,1.36,7.26,7.26,0,0,0,1.59,1c.19.1.27.06.36,0s.5-.58.63-.77.35-.19.52-.13,1.23.58,1.37.65a1.79,1.79,0,0,1,.41.25A1.6,1.6,0,0,1,10.35,9.13Z"/></g></g></svg>