<svg xmlns="http://www.w3.org/2000/svg" xmlns:xlink="http://www.w3.org/1999/xlink" viewBox="0 0 20.19 18.67"><defs><style>.cls-1{isolation:isolate;}.cls-2{opacity:0.5;mix-blend-mode:multiply;fill:url(#radial-gradient);}.cls-3{fill:url(#linear-gradient);}.cls-4{fill:#fff;}</style><radialGradient id="radial-gradient" cx="11.87" cy="-19155.9" r="8.32" gradientTransform="matrix(0.23, 0.97, 0.97, -0.23, 18652.6, -4402.3)" gradientUnits="userSpaceOnUse"><stop offset="0"/><stop offset="1" stop-color="#fff" stop-opacity="0"/></radialGradient><linearGradient id="linear-gradient" x1="11.62" y1="-19145.88" x2="4.59" y2="-19162.93" gradientTransform="matrix(0.23, 0.97, 0.97, -0.23, 18647.89, -4400.46)" gradientUnits="userSpaceOnUse"><stop offset="0" stop-color="#f9e836"/><stop offset="1" stop-color="#db1ab8"/></linearGradient></defs><g class="cls-1"><g id="Layer_2" data-name="Layer 2"><g id="Layer_5" data-name="Layer 5"><circle class="cls-2" cx="11.87" cy="10.35" r="8.32" transform="translate(-0.93 19.52) rotate(-76.72)"/><circle class="cls-3" cx="8.32" cy="8.32" r="8.32" transform="translate(-1.69 14.51) rotate(-76.72)"/><path class="cls-4" d="M8.3,11.09a2.51,2.51,0,1,0-2.51-2.5A2.51,2.51,0,0,0,8.3,11.09ZM6.62,8.59A1.69,1.69,0,1,1,8.3,10.27,1.69,1.69,0,0,1,6.62,8.59Z"/><path class="cls-4" d="M11.09,13.23H5.51a1.9,1.9,0,0,1-1.9-1.9V5.84a1.9,1.9,0,0,1,1.9-1.9h5.58A1.9,1.9,0,0,1,13,5.84v5.49A1.9,1.9,0,0,1,11.09,13.23ZM5.51,4.63A1.21,1.21,0,0,0,4.3,5.84v5.49a1.21,1.21,0,0,0,1.21,1.21h5.58a1.21,1.21,0,0,0,1.21-1.21V5.84a1.21,1.21,0,0,0-1.21-1.21Z"/><path class="cls-4" d="M11.42,5.93a.61.61,0,1,1-.61-.61A.6.6,0,0,1,11.42,5.93Z"/></g></g></g></svg>