<?xml version="1.0" encoding="utf-8"?>
<!-- Generator: Adobe Illustrator 17.0.0, SVG Export Plug-In . SVG Version: 6.00 Build 0)  -->
<!DOCTYPE svg PUBLIC "-//W3C//DTD SVG 1.1//EN" "http://www.w3.org/Graphics/SVG/1.1/DTD/svg11.dtd">
<svg version="1.1" id="Layer_1" xmlns="http://www.w3.org/2000/svg" xmlns:xlink="http://www.w3.org/1999/xlink" x="0px" y="0px"
	 width="500px" height="500px" viewBox="0 0 500 500" enable-background="new 0 0 500 500" xml:space="preserve">
<g>
	<g>
		<g>
			
				<radialGradient id="SVGID_1_" cx="289.8835" cy="-16154.7861" r="187.1463" gradientTransform="matrix(1 0 0 -1 0 -15882)" gradientUnits="userSpaceOnUse">
				<stop  offset="0" style="stop-color:#000000"/>
				<stop  offset="0.0973" style="stop-color:#060606;stop-opacity:0.9027"/>
				<stop  offset="0.2213" style="stop-color:#151515;stop-opacity:0.7787"/>
				<stop  offset="0.3599" style="stop-color:#303030;stop-opacity:0.6401"/>
				<stop  offset="0.5092" style="stop-color:#545454;stop-opacity:0.4908"/>
				<stop  offset="0.6671" style="stop-color:#838383;stop-opacity:0.3329"/>
				<stop  offset="0.8322" style="stop-color:#BDBDBD;stop-opacity:0.1678"/>
				<stop  offset="1" style="stop-color:#FFFFFF;stop-opacity:0"/>
			</radialGradient>
			<circle opacity="0.5" fill="url(#SVGID_1_)" cx="289.884" cy="272.785" r="187.146"/>
			
				<linearGradient id="SVGID_2_" gradientUnits="userSpaceOnUse" x1="284.2664" y1="-15929.3574" x2="126.1396" y2="-16312.8984" gradientTransform="matrix(1 0 0 -1 0 -15882)">
				<stop  offset="0" style="stop-color:#1B75B2"/>
				<stop  offset="0.51" style="stop-color:#2089C3"/>
				<stop  offset="1" style="stop-color:#25A0D7"/>
			</linearGradient>
			<path fill="url(#SVGID_2_)" d="M397.262,227.212c0,103.358-83.787,187.145-187.145,187.145
				c-103.36,0-187.147-83.787-187.147-187.145c0-103.36,83.787-187.147,187.147-187.147
				C313.475,40.064,397.262,123.851,397.262,227.212z"/>
		</g>
	</g>
	<g>
		<g>
			<g>
				<g>
					<g>
						<path fill="#FFFFFF" d="M301.691,242.757v68.597h-39.768v-63.995c0-16.074-5.743-27.046-20.143-27.046
							c-10.988,0-17.518,7.391-20.399,14.544c-1.048,2.555-1.318,6.107-1.318,9.692v66.805h-39.775c0,0,0.535-108.392,0-119.614
							h39.775v16.949c-0.079,0.137-0.193,0.265-0.263,0.394h0.263v-0.394c5.286-8.131,14.713-19.758,35.843-19.758
							C282.073,188.93,301.691,206.025,301.691,242.757L301.691,242.757z M118.541,311.354H158.3V191.74h-39.759V311.354z
							 M118.541,311.354 M159.485,151.153c0,11.307-9.166,20.473-20.471,20.473c-11.307,0-20.473-9.166-20.473-20.473
							s9.166-20.473,20.473-20.473C150.319,130.68,159.485,139.846,159.485,151.153z"/>
					</g>
				</g>
			</g>
		</g>
	</g>
</g>
</svg>
