<svg xmlns="http://www.w3.org/2000/svg" xmlns:xlink="http://www.w3.org/1999/xlink" viewBox="0 0 21.53 19.91"><defs><style>.cls-1{isolation:isolate;}.cls-2{opacity:0.5;mix-blend-mode:multiply;fill:url(#radial-gradient);}.cls-3{fill:url(#linear-gradient);}.cls-4{fill:#fff;}</style><radialGradient id="radial-gradient" cx="12.65" cy="-19786.57" r="8.87" gradientTransform="matrix(1, 0, 0, -1, 0, -19775.54)" gradientUnits="userSpaceOnUse"><stop offset="0"/><stop offset="1" stop-color="#fff" stop-opacity="0"/></radialGradient><linearGradient id="linear-gradient" x1="5.65" y1="-19793.87" x2="11.83" y2="-19775.72" gradientTransform="matrix(1, 0, 0, -1, 0, -19775.54)" gradientUnits="userSpaceOnUse"><stop offset="0" stop-color="#243fe1"/><stop offset="0.15" stop-color="#2f53e4"/><stop offset="0.47" stop-color="#4c87ed"/><stop offset="0.91" stop-color="#7bd9fb"/><stop offset="1" stop-color="#84eafe"/></linearGradient></defs><g class="cls-1"><g id="Layer_2" data-name="Layer 2"><g id="Layer_5" data-name="Layer 5"><circle class="cls-2" cx="12.65" cy="11.03" r="8.87"/><circle class="cls-3" cx="8.87" cy="8.87" r="8.87"/><path class="cls-4" d="M13.56,5.51H4.14a.82.82,0,0,0-.82.81V12a.82.82,0,0,0,.82.81h9.42a.81.81,0,0,0,.81-.81V6.32A.81.81,0,0,0,13.56,5.51Zm.15,1.33L9,9.49a.15.15,0,0,1-.09,0h0a.15.15,0,0,1-.09,0L4,6.84a1,1,0,0,1-.07-.65.18.18,0,0,1,.25-.07l4.69,2.6,4.68-2.6c.09,0,.21.38.26.47A.19.19,0,0,1,13.71,6.84Z"/></g></g></g></svg>