<svg xmlns="http://www.w3.org/2000/svg" viewBox="0 0 73.26 73.26"><defs><style>.cls-1{fill:#0068a8;}.cls-2{fill:#fff;}</style></defs><g id="Layer_2" data-name="Layer 2"><g id="Layer_5" data-name="Layer 5"><rect class="cls-1" width="73.26" height="73.26"/><path class="cls-2" d="M60.36,56.34,43.8,27.94V24.68h8.36a1.2,1.2,0,0,0,1.2-1.19h0V16.31a1.2,1.2,0,0,0-1.2-1.19H42.6a1.19,1.19,0,0,0-1.19,1.19h0V27.9L32.86,40.73l-6.14-6.14a1.19,1.19,0,0,0-1.69,0,1.21,1.21,0,0,0-.2.26L12.88,56.36A1.2,1.2,0,0,0,13.35,58a1.27,1.27,0,0,0,.58.14h45.4a1.18,1.18,0,0,0,1.19-1.19,1.15,1.15,0,0,0-.16-.6ZM43.8,17.51H51v4.78H43.8ZM16,55.75,26.15,37.4l6.05,6.05a1.21,1.21,0,0,0,1,.34,1.18,1.18,0,0,0,.88-.53l8.49-12.74L57.25,55.75Z"/></g></g></svg>