<svg xmlns="http://www.w3.org/2000/svg" viewBox="0 0 174.7 30.47"><g id="Layer_2" data-name="Layer 2"><g id="Layer_5" data-name="Layer 5"><path d="M172.05,24.6a2.67,2.67,0,1,0-.1,5.33h.1a2.66,2.66,0,0,0,2.65-2.66h0a2.66,2.66,0,0,0-2.65-2.66Zm0,5a2.35,2.35,0,0,1-2.35-2.34h0A2.34,2.34,0,0,1,172,24.92h0a2.34,2.34,0,0,1,2.33,2.34h0a2.34,2.34,0,0,1-2.33,2.35Z"/><path d="M173.41,26.56a.74.74,0,0,0-.33-.64,1.43,1.43,0,0,0-.73-.15h-1.29v3h.36V27.38h.67l.85,1.37h.43l-.9-1.37c.53,0,.94-.23.94-.82Zm-1.43.53h-.56V26h.85c.37,0,.77.06.77.52S172.39,27.09,172,27.09ZM156.44,12.17l5.44-5.81a1.8,1.8,0,0,0,.47-1c0-.43-.36-.6-1.52-.6h-1.37V1.11h14.87V4.78h-2c-2.25,0-2.67.34-5.82,4.31l-8.61,9.3v5.68c0,1.45.73,2,2.83,2H164v3.54H143.2V26h3.25c2.1,0,2.83-.51,2.83-2V18.39L139.14,7.17c-1.68-2-1.45-2.39-6.12-2.39V1.11h18.84V4.78h-1.34c-1.37,0-2,.26-2,.77s.42.77.69,1.11l5.13,5.59a1.24,1.24,0,0,0,2.05-.08ZM30.08,1.11h4.54V11.35H30.43c-.38-2-1.66-2.84-2.83-3.92C25.5,5.5,20.93,3.88,17.09,3.88,12.14,3.88,8,5.42,8,7.68,8,14,36.29,9,36.29,20.82c0,6.19-6.07,9.65-17,9.65a32,32,0,0,1-12.85-3c-1.06-.61-1.5.57-1.7,2.06H.11V19H4.32c.93,2.69,2.21,3.24,3.39,4.31,2,1.88,6.91,3.24,11.37,3.2,6.72-.07,9-1.54,9-3.67s-2.28-2.65-9.65-3.8L12.2,18C5.14,16.94,0,15.36,0,9.73,0,3.88,6.5.21,16.78.21c4.34,0,8,.58,11.44,2.55,1,.63,1.87.7,1.86-1.65Zm88.66,17.15.09-11.39c0-1.49-.78-2-3-2h-2.61V1.33h16.59V4.87h-2.16c-2.22,0-3,.51-3,2V29.79l-6.49-.05-21-19.92V24.28c0,1.45.77,2,3,2H103v3.5H85.78v-3.5h2.85c2.22,0,3-.56,3-2V6.87c0-1.49-.78-2-3-2H85.78V1.33h14.9ZM63.15,0c-13.22,0-21.5,5.85-21.5,15.23,0,9.22,8.16,15,21.1,15,13.74,0,21.73-5.72,21.73-15.49C84.48,6,75.86,0,63.15,0Zm-.3,26.54c-7.32,0-11.52-4.22-11.52-11.52,0-7.13,4.39-11.35,11.89-11.35,7.2,0,11.4,4.31,11.4,11.65,0,7.17-4.26,11.22-11.77,11.22Z"/></g></g></svg>