<svg xmlns="http://www.w3.org/2000/svg" xmlns:xlink="http://www.w3.org/1999/xlink" viewBox="0 0 20.19 18.67"><defs><style>.cls-1{isolation:isolate;}.cls-2{opacity:0.5;mix-blend-mode:multiply;fill:url(#radial-gradient);}.cls-3{fill:url(#linear-gradient);}.cls-4{fill:#fff;}</style><radialGradient id="radial-gradient" cx="11.87" cy="-22382.52" r="8.32" gradientTransform="matrix(0.23, 0.97, 0.97, -0.23, 21792.92, -5143.63)" gradientUnits="userSpaceOnUse"><stop offset="0"/><stop offset="1" stop-color="#fff" stop-opacity="0"/></radialGradient><linearGradient id="linear-gradient" x1="-6989.26" y1="-13914.84" x2="-6983.46" y2="-13897.82" gradientTransform="matrix(0.71, -0.71, -0.71, -0.71, -4884.67, -14764.7)" gradientUnits="userSpaceOnUse"><stop offset="0" stop-color="#2b6cb5"/><stop offset="0.27" stop-color="#3a80c0"/><stop offset="0.82" stop-color="#61b3dc"/><stop offset="1" stop-color="#6ec5e6"/></linearGradient></defs><g class="cls-1"><g id="Layer_2" data-name="Layer 2"><g id="Layer_5" data-name="Layer 5"><circle class="cls-2" cx="11.87" cy="10.35" r="8.32" transform="translate(-0.93 19.52) rotate(-76.72)"/><circle class="cls-3" cx="8.32" cy="8.32" r="8.32" transform="translate(-3.45 8.32) rotate(-45)"/><path class="cls-4" d="M13.18,5.92a3.6,3.6,0,0,1-1,.25,1.84,1.84,0,0,0,.81-1s0,0-.05,0a3.81,3.81,0,0,1-1.13.41A1.89,1.89,0,0,0,8.56,6.87a1.93,1.93,0,0,0,0,.42A5.39,5.39,0,0,1,4.73,5.36h0a1.84,1.84,0,0,0,.56,2.45s0,0,0,0a2.11,2.11,0,0,1-.8-.22s0,0,0,0a2.42,2.42,0,0,0,.12.68A1.89,1.89,0,0,0,6,9.44a2.08,2.08,0,0,1-.5.07,2,2,0,0,1-.34,0s0,0,0,0a1.88,1.88,0,0,0,1.72,1.27s0,0,0,0a3.79,3.79,0,0,1-2.32.78,3.15,3.15,0,0,1-.44,0A5.34,5.34,0,0,0,7,12.36a5.25,5.25,0,0,0,3.53-1.27,5.43,5.43,0,0,0,1.7-2.89,4.76,4.76,0,0,0,.13-1.12V6.84A3.83,3.83,0,0,0,13.22,6,0,0,0,0,0,13.18,5.92Z"/></g></g></g></svg>