<svg xmlns="http://www.w3.org/2000/svg" viewBox="0 0 27.73 27.73"><defs><style>.cls-1{fill:#fff;}.cls-2{fill:#00689f;}</style></defs><g id="Layer_2" data-name="Layer 2"><g id="Layer_1-2" data-name="Layer 1"><path class="cls-1" d="M13.87,0A13.87,13.87,0,1,1,0,13.87,13.86,13.86,0,0,1,13.87,0Z"/><path class="cls-2" d="M22,9.87a6.45,6.45,0,0,1-1.65.42A3.12,3.12,0,0,0,21.66,8.7s0-.08-.07-.06a6.15,6.15,0,0,1-1.88.69,3.17,3.17,0,0,0-2.3-1,3.12,3.12,0,0,0-3.14,3.1,3.19,3.19,0,0,0,.08.7A9,9,0,0,1,7.89,8.94h0A3.07,3.07,0,0,0,8.79,13a0,0,0,0,1,0,0,3.3,3.3,0,0,1-1.33-.37s0,0,0,0a3.84,3.84,0,0,0,.21,1.13A3.16,3.16,0,0,0,10,15.74a3.32,3.32,0,0,1-.83.11,2.76,2.76,0,0,1-.57-.06s0,0,0,0a3.15,3.15,0,0,0,2.88,2.11,0,0,0,0,1,0,0,6.38,6.38,0,0,1-3.86,1.29,6.17,6.17,0,0,1-.75,0,9,9,0,0,0,4.82,1.39,8.74,8.74,0,0,0,5.88-2.13,9,9,0,0,0,2.84-4.81,8.51,8.51,0,0,0,.22-1.86c0-.14,0-.27,0-.4A6.22,6.22,0,0,0,22,9.94,0,0,0,0,0,22,9.87Z"/></g></g></svg>